<svg xmlns="http://www.w3.org/2000/svg" xmlns:xlink="http://www.w3.org/1999/xlink" width="500" zoomAndPan="magnify" viewBox="0 0 375 374.999991" height="500" preserveAspectRatio="xMidYMid meet" version="1.0"><defs><g/><clipPath id="ae15acd753"><path d="M 196 112.070312 L 249.890625 112.070312 L 249.890625 213 L 196 213 Z M 196 112.070312 " clip-rule="nonzero"/></clipPath></defs><rect x="-37.5" width="450" fill="#ffffff" y="-37.499999" height="449.999989" fill-opacity="1"/><rect x="-37.5" width="450" fill="#f9f8f9" y="-37.499999" height="449.999989" fill-opacity="1"/><g fill="#242424" fill-opacity="1"><g transform="translate(83.738443, 256.376806)"><g><path d="M 24.078125 0 L 17.03125 -12.375 L 12.015625 -12.375 L 12.015625 0 L 4.140625 0 L 4.140625 -36.234375 L 18.796875 -36.234375 C 21.210938 -36.234375 23.367188 -35.710938 25.265625 -34.671875 C 27.160156 -33.640625 28.660156 -32.226562 29.765625 -30.4375 C 30.867188 -28.644531 31.421875 -26.570312 31.421875 -24.21875 C 31.421875 -21.875 30.820312 -19.78125 29.625 -17.9375 C 28.4375 -16.09375 26.84375 -14.6875 24.84375 -13.71875 L 32.875 0 Z M 12.015625 -28.984375 L 12.015625 -19.625 L 18.265625 -19.625 C 19.890625 -19.625 21.164062 -20.0625 22.09375 -20.9375 C 23.03125 -21.820312 23.5 -22.9375 23.5 -24.28125 C 23.5 -25.65625 23.03125 -26.78125 22.09375 -27.65625 C 21.164062 -28.539062 19.890625 -28.984375 18.265625 -28.984375 Z M 12.015625 -28.984375 "/></g></g></g><g fill="#242424" fill-opacity="1"><g transform="translate(115.002267, 256.376806)"><g><path d="M 30.75 -14.078125 C 30.75 -13.359375 30.695312 -12.617188 30.59375 -11.859375 L 9.46875 -11.859375 C 9.78125 -9.953125 10.539062 -8.488281 11.75 -7.46875 C 12.957031 -6.457031 14.476562 -5.953125 16.3125 -5.953125 C 17.613281 -5.953125 18.78125 -6.234375 19.8125 -6.796875 C 20.851562 -7.367188 21.648438 -8.15625 22.203125 -9.15625 L 30.171875 -9.15625 C 29.140625 -6.125 27.378906 -3.707031 24.890625 -1.90625 C 22.410156 -0.113281 19.550781 0.78125 16.3125 0.78125 C 13.550781 0.78125 11.070312 0.132812 8.875 -1.15625 C 6.6875 -2.457031 4.960938 -4.21875 3.703125 -6.4375 C 2.441406 -8.664062 1.8125 -11.179688 1.8125 -13.984375 C 1.8125 -16.773438 2.441406 -19.28125 3.703125 -21.5 C 4.960938 -23.726562 6.6875 -25.488281 8.875 -26.78125 C 11.070312 -28.082031 13.550781 -28.734375 16.3125 -28.734375 C 19.175781 -28.734375 21.691406 -28.066406 23.859375 -26.734375 C 26.035156 -25.410156 27.726562 -23.644531 28.9375 -21.4375 C 30.144531 -19.226562 30.75 -16.773438 30.75 -14.078125 Z M 16.3125 -22.3125 C 14.613281 -22.3125 13.1875 -21.84375 12.03125 -20.90625 C 10.875 -19.976562 10.09375 -18.6875 9.6875 -17.03125 L 23.1875 -17.03125 C 22.082031 -20.550781 19.789062 -22.3125 16.3125 -22.3125 Z M 16.3125 -22.3125 "/></g></g></g><g fill="#242424" fill-opacity="1"><g transform="translate(144.557956, 256.376806)"><g><path d="M 19.5625 -28.625 C 22.738281 -28.625 25.25 -27.5625 27.09375 -25.4375 C 28.945312 -23.320312 29.875 -20.484375 29.875 -16.921875 L 29.875 0 L 22.3125 0 L 22.3125 -15.734375 C 22.3125 -19.910156 20.6875 -22 17.4375 -22 C 15.507812 -22 13.984375 -21.34375 12.859375 -20.03125 C 11.742188 -18.71875 11.1875 -16.941406 11.1875 -14.703125 L 11.1875 0 L 3.625 0 L 3.625 -27.953125 L 8.796875 -27.953125 L 10.296875 -24.484375 C 11.335938 -25.765625 12.664062 -26.773438 14.28125 -27.515625 C 15.90625 -28.253906 17.664062 -28.625 19.5625 -28.625 Z M 19.5625 -28.625 "/></g></g></g><g fill="#242424" fill-opacity="1"><g transform="translate(174.786545, 256.376806)"><g><path d="M 17.296875 -6.734375 L 20.703125 -6.734375 L 20.703125 0 L 15.375 0 C 12.300781 0 9.875 -0.882812 8.09375 -2.65625 C 6.320312 -4.4375 5.4375 -6.878906 5.4375 -9.984375 L 5.4375 -21.890625 L 0.359375 -21.890625 L 0.359375 -23.5 L 11.4375 -35.25 L 12.84375 -35.25 L 12.84375 -27.953125 L 20.546875 -27.953125 L 20.546875 -21.890625 L 13 -21.890625 L 13 -10.96875 C 13 -9.625 13.367188 -8.582031 14.109375 -7.84375 C 14.847656 -7.101562 15.910156 -6.734375 17.296875 -6.734375 Z M 17.296875 -6.734375 "/></g></g></g><path fill="#e32128" d="M 143.359375 166.082031 C 144.253906 166.089844 145.308594 166.195312 146.566406 166.414062 C 151.597656 167.277344 156.964844 168.542969 159.339844 174.53125 C 160.613281 177.753906 159.6875 179.917969 156.03125 179.367188 C 152.214844 178.792969 145.074219 177.898438 141.671875 176.65625 C 137.53125 175.140625 138.402344 170.539062 139.164062 168.199219 C 139.585938 166.894531 140.707031 166.050781 143.359375 166.082031 Z M 186.957031 120.609375 C 177.832031 120.609375 168.503906 120.570312 159.578125 121.800781 C 155.445312 122.378906 152.777344 124.8125 150.863281 127.628906 C 146.507812 134.042969 143.703125 140.800781 141.253906 147.648438 L 130.308594 147.648438 C 127.257812 147.648438 125.441406 150.019531 126.238281 152.96875 C 127.105469 156.222656 128.097656 157.8125 132.867188 158.925781 L 134.691406 159.347656 C 133.265625 162.066406 132.226562 164.933594 132.226562 167.503906 L 132.226562 188.546875 C 132.226562 192.070312 134.667969 195.046875 137.503906 196.152344 L 137.503906 206.003906 C 137.503906 207.925781 139.050781 209.476562 140.976562 209.476562 L 150.816406 209.476562 C 152.734375 209.476562 154.289062 207.925781 154.289062 206.003906 L 154.289062 196.644531 L 203.25 196.644531 L 203.25 191.308594 C 203.25 188.644531 204.742188 185.96875 206.601562 184.058594 L 206.601562 183.011719 C 205.984375 182.46875 204.5 180.441406 203.730469 178.234375 C 202.136719 179.011719 200.390625 179.457031 198.625 179.457031 L 175.296875 179.457031 C 170.785156 179.457031 166.34375 176.628906 164.625 172.421875 C 163.804688 170.433594 164.203125 168.371094 165.988281 168.371094 L 203.238281 168.371094 L 203.238281 162.082031 C 197.207031 160.667969 192.078125 156.597656 190.332031 150.890625 C 189.207031 150.90625 188.046875 150.9375 186.957031 150.9375 C 170.214844 150.9375 147.660156 148.691406 147.660156 148.691406 C 149.683594 142.582031 152.894531 137.085938 156.5 131.25 C 158.179688 128.53125 160.679688 127.0625 163.398438 126.875 C 170.585938 126.382812 179.09375 126.101562 186.957031 126.089844 C 187.859375 126.097656 188.785156 126.113281 189.699219 126.121094 L 189.699219 121.960938 C 189.699219 121.507812 189.730469 121.058594 189.765625 120.613281 C 188.832031 120.609375 187.890625 120.609375 186.957031 120.609375 Z M 186.957031 120.609375 " fill-opacity="1" fill-rule="evenodd"/><g clip-path="url(#ae15acd753)"><path fill="#e32128" d="M 234.859375 123.929688 L 234.859375 126.527344 C 234.859375 127.875 233.769531 128.960938 232.421875 128.960938 L 214.03125 128.960938 C 212.683594 128.960938 211.597656 127.875 211.597656 126.527344 L 211.597656 123.929688 C 211.597656 122.582031 212.683594 121.503906 214.03125 121.503906 L 232.425781 121.503906 C 233.769531 121.503906 234.859375 122.582031 234.859375 123.929688 Z M 249.722656 121.957031 C 249.722656 116.503906 245.335938 112.105469 239.882812 112.105469 L 206.582031 112.105469 C 201.128906 112.105469 196.738281 116.503906 196.738281 121.957031 L 196.738281 146.589844 C 196.738281 152.042969 201.128906 156.433594 206.582031 156.433594 L 210.28125 156.433594 L 210.28125 175.730469 C 210.28125 176.777344 210.710938 177.257812 211.273438 177.753906 L 214.59375 180.699219 C 216.117188 182.046875 216.046875 184.601562 214.648438 185.992188 L 211.304688 189.300781 C 210.632812 189.96875 210.285156 190.414062 210.285156 191.308594 L 210.285156 200.25 C 210.195312 201.15625 210.453125 202.164062 211.054688 203.042969 C 224.867188 216.058594 223.171875 215.234375 234.921875 203.601562 C 235.824219 202.703125 236.105469 201.605469 236.171875 200.414062 L 236.171875 156.433594 L 239.882812 156.433594 C 245.335938 156.433594 249.722656 152.046875 249.722656 146.589844 Z M 249.722656 121.957031 " fill-opacity="1" fill-rule="nonzero"/></g><g fill="#242424" fill-opacity="1"><g transform="translate(201.83211, 256.884665)"><g><path d="M 21.0625 0.5625 C 18.375 0.5625 15.898438 0.109375 13.640625 -0.796875 C 11.378906 -1.710938 9.410156 -3.007812 7.734375 -4.6875 C 6.066406 -6.363281 4.773438 -8.335938 3.859375 -10.609375 C 2.941406 -12.890625 2.484375 -15.394531 2.484375 -18.125 C 2.484375 -20.84375 2.941406 -23.34375 3.859375 -25.625 C 4.773438 -27.90625 6.066406 -29.878906 7.734375 -31.546875 C 9.410156 -33.222656 11.378906 -34.519531 13.640625 -35.4375 C 15.898438 -36.351562 18.375 -36.8125 21.0625 -36.8125 C 23.863281 -36.8125 26.425781 -36.28125 28.75 -35.21875 C 31.082031 -34.164062 33.066406 -32.679688 34.703125 -30.765625 C 36.347656 -28.859375 37.515625 -26.59375 38.203125 -23.96875 L 33.59375 -23.96875 C 32.625 -26.59375 31.035156 -28.644531 28.828125 -30.125 C 26.617188 -31.613281 24.03125 -32.359375 21.0625 -32.359375 C 18.375 -32.359375 15.976562 -31.753906 13.875 -30.546875 C 11.769531 -29.335938 10.117188 -27.65625 8.921875 -25.5 C 7.734375 -23.34375 7.140625 -20.882812 7.140625 -18.125 C 7.140625 -15.320312 7.734375 -12.847656 8.921875 -10.703125 C 10.117188 -8.566406 11.769531 -6.894531 13.875 -5.6875 C 15.976562 -4.476562 18.375 -3.875 21.0625 -3.875 C 24.101562 -3.875 26.742188 -4.660156 28.984375 -6.234375 C 31.234375 -7.804688 32.820312 -9.988281 33.75 -12.78125 L 38.40625 -12.78125 C 37.71875 -10.0625 36.546875 -7.695312 34.890625 -5.6875 C 33.234375 -3.6875 31.222656 -2.144531 28.859375 -1.0625 C 26.492188 0.0195312 23.894531 0.5625 21.0625 0.5625 Z M 21.0625 0.5625 "/></g></g></g><g fill="#242424" fill-opacity="1"><g transform="translate(239.048543, 256.884665)"><g><path d="M 28.265625 -27.953125 L 31.78125 -27.953125 L 31.78125 0 L 28.109375 0 L 27.640625 -4.25 C 26.367188 -2.726562 24.789062 -1.535156 22.90625 -0.671875 C 21.019531 0.191406 18.941406 0.625 16.671875 0.625 C 13.941406 0.625 11.476562 -0.0078125 9.28125 -1.28125 C 7.09375 -2.5625 5.367188 -4.304688 4.109375 -6.515625 C 2.847656 -8.722656 2.21875 -11.210938 2.21875 -13.984375 C 2.21875 -16.773438 2.847656 -19.265625 4.109375 -21.453125 C 5.367188 -23.648438 7.09375 -25.382812 9.28125 -26.65625 C 11.476562 -27.9375 13.941406 -28.578125 16.671875 -28.578125 C 18.984375 -28.578125 21.078125 -28.132812 22.953125 -27.25 C 24.835938 -26.375 26.414062 -25.175781 27.6875 -23.65625 Z M 17.03125 -3.625 C 19 -3.625 20.757812 -4.070312 22.3125 -4.96875 C 23.863281 -5.863281 25.078125 -7.097656 25.953125 -8.671875 C 26.835938 -10.242188 27.28125 -12.015625 27.28125 -13.984375 C 27.28125 -15.941406 26.835938 -17.707031 25.953125 -19.28125 C 25.078125 -20.851562 23.863281 -22.085938 22.3125 -22.984375 C 20.757812 -23.878906 19 -24.328125 17.03125 -24.328125 C 15.0625 -24.328125 13.300781 -23.867188 11.75 -22.953125 C 10.195312 -22.046875 8.972656 -20.8125 8.078125 -19.25 C 7.179688 -17.695312 6.734375 -15.941406 6.734375 -13.984375 C 6.734375 -12.015625 7.179688 -10.25 8.078125 -8.6875 C 8.972656 -7.132812 10.195312 -5.898438 11.75 -4.984375 C 13.300781 -4.078125 15.0625 -3.625 17.03125 -3.625 Z M 17.03125 -3.625 "/></g></g></g><g fill="#242424" fill-opacity="1"><g transform="translate(272.279319, 256.884665)"><g><path d="M 17.1875 -28.109375 L 19.671875 -28.109375 L 19.671875 -23.921875 L 16.828125 -23.921875 C 14.273438 -23.921875 12.304688 -23.140625 10.921875 -21.578125 C 9.546875 -20.023438 8.859375 -17.890625 8.859375 -15.171875 L 8.859375 0 L 4.453125 0 L 4.453125 -27.953125 L 7.5625 -27.953125 L 8.28125 -23.703125 C 9.28125 -25.117188 10.515625 -26.207031 11.984375 -26.96875 C 13.453125 -27.726562 15.1875 -28.109375 17.1875 -28.109375 Z M 17.1875 -28.109375 "/></g></g></g><g fill="#272727" fill-opacity="1"><g transform="translate(135.671876, 277.919839)"><g><path d="M 3.96875 0.0625 C 3.300781 0.0625 2.664062 -0.0507812 2.0625 -0.28125 C 1.46875 -0.507812 1 -0.804688 0.65625 -1.171875 L 0.953125 -1.65625 C 1.273438 -1.320312 1.707031 -1.046875 2.25 -0.828125 C 2.789062 -0.617188 3.359375 -0.515625 3.953125 -0.515625 C 4.816406 -0.515625 5.46875 -0.675781 5.90625 -1 C 6.351562 -1.332031 6.578125 -1.765625 6.578125 -2.296875 C 6.578125 -2.703125 6.457031 -3.023438 6.21875 -3.265625 C 5.988281 -3.503906 5.703125 -3.6875 5.359375 -3.8125 C 5.015625 -3.945312 4.546875 -4.085938 3.953125 -4.234375 C 3.285156 -4.390625 2.75 -4.546875 2.34375 -4.703125 C 1.945312 -4.859375 1.609375 -5.097656 1.328125 -5.421875 C 1.046875 -5.742188 0.90625 -6.179688 0.90625 -6.734375 C 0.90625 -7.171875 1.019531 -7.570312 1.25 -7.9375 C 1.488281 -8.3125 1.847656 -8.601562 2.328125 -8.8125 C 2.804688 -9.03125 3.40625 -9.140625 4.125 -9.140625 C 4.625 -9.140625 5.113281 -9.066406 5.59375 -8.921875 C 6.082031 -8.773438 6.503906 -8.578125 6.859375 -8.328125 L 6.609375 -7.796875 C 6.242188 -8.046875 5.84375 -8.234375 5.40625 -8.359375 C 4.976562 -8.492188 4.550781 -8.5625 4.125 -8.5625 C 3.28125 -8.5625 2.640625 -8.390625 2.203125 -8.046875 C 1.773438 -7.710938 1.5625 -7.28125 1.5625 -6.75 C 1.5625 -6.34375 1.675781 -6.015625 1.90625 -5.765625 C 2.144531 -5.523438 2.4375 -5.335938 2.78125 -5.203125 C 3.132812 -5.078125 3.609375 -4.941406 4.203125 -4.796875 C 4.867188 -4.628906 5.398438 -4.46875 5.796875 -4.3125 C 6.191406 -4.15625 6.53125 -3.921875 6.8125 -3.609375 C 7.09375 -3.296875 7.234375 -2.867188 7.234375 -2.328125 C 7.234375 -1.890625 7.113281 -1.488281 6.875 -1.125 C 6.632812 -0.757812 6.269531 -0.46875 5.78125 -0.25 C 5.289062 -0.0390625 4.6875 0.0625 3.96875 0.0625 Z M 3.96875 0.0625 "/></g></g></g><g fill="#272727" fill-opacity="1"><g transform="translate(151.408119, 277.919839)"><g><path d="M 7.84375 -0.59375 L 7.84375 0 L 1.578125 0 L 1.578125 -9.078125 L 7.65625 -9.078125 L 7.65625 -8.484375 L 2.25 -8.484375 L 2.25 -4.90625 L 7.078125 -4.90625 L 7.078125 -4.3125 L 2.25 -4.3125 L 2.25 -0.59375 Z M 7.84375 -0.59375 "/></g></g></g><g fill="#272727" fill-opacity="1"><g transform="translate(167.922015, 277.919839)"><g><path d="M 7.890625 0 L 5.71875 -3.03125 C 5.394531 -2.988281 5.101562 -2.96875 4.84375 -2.96875 L 2.25 -2.96875 L 2.25 0 L 1.578125 0 L 1.578125 -9.078125 L 4.84375 -9.078125 C 5.976562 -9.078125 6.867188 -8.804688 7.515625 -8.265625 C 8.171875 -7.722656 8.5 -6.972656 8.5 -6.015625 C 8.5 -5.296875 8.3125 -4.691406 7.9375 -4.203125 C 7.570312 -3.710938 7.050781 -3.367188 6.375 -3.171875 L 8.640625 0 Z M 4.84375 -3.546875 C 5.8125 -3.546875 6.546875 -3.757812 7.046875 -4.1875 C 7.554688 -4.625 7.8125 -5.234375 7.8125 -6.015625 C 7.8125 -6.804688 7.554688 -7.414062 7.046875 -7.84375 C 6.546875 -8.269531 5.8125 -8.484375 4.84375 -8.484375 L 2.25 -8.484375 L 2.25 -3.546875 Z M 4.84375 -3.546875 "/></g></g></g><g fill="#272727" fill-opacity="1"><g transform="translate(185.096911, 277.919839)"><g><path d="M 8.828125 -9.078125 L 4.78125 0 L 4.125 0 L 0.078125 -9.078125 L 0.796875 -9.078125 L 4.46875 -0.859375 L 8.140625 -9.078125 Z M 8.828125 -9.078125 "/></g></g></g><g fill="#272727" fill-opacity="1"><g transform="translate(201.844099, 277.919839)"><g><path d="M 1.578125 -9.078125 L 2.25 -9.078125 L 2.25 0 L 1.578125 0 Z M 1.578125 -9.078125 "/></g></g></g><g fill="#272727" fill-opacity="1"><g transform="translate(213.510658, 277.919839)"><g><path d="M 5.421875 0.0625 C 4.523438 0.0625 3.722656 -0.132812 3.015625 -0.53125 C 2.304688 -0.925781 1.742188 -1.472656 1.328125 -2.171875 C 0.921875 -2.878906 0.71875 -3.671875 0.71875 -4.546875 C 0.71875 -5.410156 0.921875 -6.191406 1.328125 -6.890625 C 1.742188 -7.597656 2.304688 -8.148438 3.015625 -8.546875 C 3.722656 -8.941406 4.523438 -9.140625 5.421875 -9.140625 C 6.078125 -9.140625 6.679688 -9.03125 7.234375 -8.8125 C 7.785156 -8.601562 8.257812 -8.296875 8.65625 -7.890625 L 8.234375 -7.453125 C 7.503906 -8.171875 6.578125 -8.53125 5.453125 -8.53125 C 4.691406 -8.53125 4 -8.359375 3.375 -8.015625 C 2.75 -7.671875 2.257812 -7.191406 1.90625 -6.578125 C 1.550781 -5.972656 1.375 -5.296875 1.375 -4.546875 C 1.375 -3.785156 1.550781 -3.097656 1.90625 -2.484375 C 2.257812 -1.878906 2.75 -1.40625 3.375 -1.0625 C 4 -0.71875 4.691406 -0.546875 5.453125 -0.546875 C 6.578125 -0.546875 7.503906 -0.910156 8.234375 -1.640625 L 8.65625 -1.203125 C 8.257812 -0.785156 7.78125 -0.46875 7.21875 -0.25 C 6.664062 -0.0390625 6.066406 0.0625 5.421875 0.0625 Z M 5.421875 0.0625 "/></g></g></g><g fill="#272727" fill-opacity="1"><g transform="translate(230.633707, 277.919839)"><g><path d="M 7.84375 -0.59375 L 7.84375 0 L 1.578125 0 L 1.578125 -9.078125 L 7.65625 -9.078125 L 7.65625 -8.484375 L 2.25 -8.484375 L 2.25 -4.90625 L 7.078125 -4.90625 L 7.078125 -4.3125 L 2.25 -4.3125 L 2.25 -0.59375 Z M 7.84375 -0.59375 "/></g></g></g></svg>